<?xml version="1.0" encoding="utf-8"?>
<!-- Generator: Adobe Illustrator 27.0.0, SVG Export Plug-In . SVG Version: 6.00 Build 0)  -->
<svg version="1.1" id="Capa_1" xmlns="http://www.w3.org/2000/svg" xmlns:xlink="http://www.w3.org/1999/xlink" x="0px" y="0px"
	 viewBox="0 0 668.35 740.24" style="enable-background:new 0 0 668.35 740.24;" xml:space="preserve">
<style type="text/css">
	.st0{fill:#1C1C1C;}
</style>
<g>
	<path class="st0" d="M654.68,103.84c-6.98-18.47-17.53-35.2-31.64-50.19c-14.12-14.98-31.79-26.91-53.03-35.79
		c-21.24-8.87-46.26-13.31-75.07-13.31h-66.34h-8.73h-34.04V292.6c0,18.8,15.24,34.04,34.04,34.04h0h8.73h66.34
		c28.81,0,53.82-4.58,75.07-13.75c21.23-9.17,38.91-21.31,53.03-36.44c14.11-15.13,24.66-32,31.64-50.63
		c6.98-18.62,10.48-37.24,10.48-55.86v-9.6C665.15,141.16,661.66,122.32,654.68,103.84z M613.22,213.17
		c-5.53,14.84-13.61,27.79-24.22,38.84c-10.62,11.06-23.43,19.71-38.41,25.97c-14.99,6.26-32.08,9.38-51.28,9.38h-70.7V43.83h70.7
		c19.2,0,36.29,2.91,51.28,8.73c14.98,5.82,27.78,14.18,38.41,25.1c10.62,10.91,18.69,23.72,24.22,38.41
		c5.52,14.7,8.29,31.06,8.29,49.1C621.51,182.33,618.74,198.33,613.22,213.17z"/>
	<path class="st0" d="M238.45,675.9c-18.62,13.68-41.61,20.51-68.96,20.51c-19.5,0-36.52-3.42-51.06-10.26
		c-14.55-6.83-26.7-16.22-36.44-28.15c-9.75-11.93-17.02-25.6-21.82-41.02c-4.8-15.42-7.2-31.71-7.2-48.88
		c0-18.04,2.4-34.76,7.2-50.19c4.8-15.42,11.93-29.02,21.38-40.81c9.45-11.78,21.31-20.95,35.57-27.49
		c14.25-6.55,30.84-9.82,49.75-9.82c17.46,0,33.24,2.91,47.35,8.73c14.11,5.82,25.82,14.62,35.13,26.41
		c9.31,11.78,15.12,26.7,17.46,44.74h43.64c-2.62-24.15-9.9-45.1-21.82-62.85c-11.93-17.74-28.08-31.57-48.44-41.46
		c-20.37-9.89-44.81-14.84-73.32-14.84c-27.93,0-51.94,4.8-72.01,14.4c-20.08,9.6-36.37,22.26-48.88,37.97
		c-12.51,15.71-21.75,33.17-27.71,52.37c-5.97,19.2-8.95,38.41-8.95,57.61v9.6c0,17.75,2.9,36.16,8.73,55.21
		c5.82,19.06,14.98,36.73,27.5,53.03c12.51,16.3,29.02,29.53,49.54,39.72c20.51,10.18,45.31,15.28,74.41,15.28
		c29.68,0,54.92-5.39,75.72-16.15c20.8-10.76,37.1-25.16,48.88-43.21c11.78-18.04,19.13-37.97,22.04-59.79H272.5
		C268.42,642.44,257.07,662.22,238.45,675.9z"/>
	<path class="st0" d="M612.03,386.15h-74.7c-3.03,0-4.71,2.69-4.71,5.22c0,2.52,1.52,4.88,4.54,4.88c4.21,0,5.89,2.52,5.89,6.39
		c0,1.68-0.34,3.7-0.84,5.89l-49.97,206.94c-13.46,55.52-40.72,84.96-64.27,84.96c-18.84,0-35.33-18.84-40.72-58.21
		c-1.85-12.96-2.52-25.57-2.52-37.86c0-59.87,23.96-123.05,11.42-182.45c-4.58-21.72-16.67-39.69-25.81-59.49
		c-9.7-20.99-15.3-43.66-18.46-66.5c-7.52-54.3-1.76-112.95-1.76-164.8C350.12,69.89,320.34,10,259.77,10
		c-41.73,0.34-73.86,30.96-73.86,76.22c0,22.38,7.57,42.9,20.86,65.45c19.35,32.81,29.95,66.46,29.95,92.54
		c0,29.11-14.13,45.93-34.83,45.93c-30.29,0-65.45-40.38-75.38-121.48c-6.9-55.69-15.14-109.02-35-137.46
		C80.92,16.22,68.14,9.32,56.02,9.32c-20.86,0-39.37,20.36-39.37,55.18v267.68c0,7.24-2.86,11.95-8.92,11.95
		c-3.03,0-4.54,2.52-4.54,5.05c0,2.69,1.51,5.22,4.54,5.22h73.36c3.03,0,4.54-2.52,4.54-5.22c0-2.52-1.51-5.05-4.54-5.05
		c-6.06,0-8.92-4.71-8.92-11.95V108.42c0-37.01,6.06-51.82,13.12-51.82c6.73,0,14.64,13.63,19.01,34.49
		c5.38,23.56,9.09,50.98,12.95,79.08c7.74,55.86,19.35,184.06,90.35,184.06c3.03,0,6.23-0.17,9.42-0.67
		c36.01-5.22,52.33-42.9,52.33-79.24c0-47.11-28.77-83.45-51.99-122.82c-10.94-17.16-15.48-32.64-15.48-45.93
		c0-30.62,24.73-49.13,53.16-49.13c39.37,0,85.81,34.83,85.81,121.14c0,38.05-24.95,68.57-38.03,102.58
		c-12.99,33.8-0.18,68.44,15.01,99.05c16.56,33.37,30.23,68.4,39.09,104.63c12.74,52.09,15.16,106,19.72,159.23
		c4.54,53,36.85,87.99,91.53,87.99c44.92,0,63.26-40.21,72.85-80.09l58.72-242.78c1.35-6.06,4.38-11.95,11.27-11.95
		c3.2,0,5.05-3.03,5.05-5.72C616.07,388.34,614.89,386.15,612.03,386.15z"/>
</g>
</svg>
